<svg width="14" height="16" viewBox="0 0 14 16" fill="none" xmlns="http://www.w3.org/2000/svg">
<path d="M7 16.0009C7.53043 16.0009 8.03914 15.7902 8.41421 15.4151C8.78929 15.04 9 14.5313 9 14.0009H5C5 14.5313 5.21071 15.04 5.58579 15.4151C5.96086 15.7902 6.46957 16.0009 7 16.0009ZM7.995 1.09987C8.00896 0.960829 7.99362 0.820401 7.94997 0.687648C7.90632 0.554895 7.83533 0.432765 7.74158 0.329133C7.64783 0.225501 7.5334 0.142669 7.40567 0.0859795C7.27794 0.0292895 7.13974 0 7 0C6.86026 0 6.72206 0.0292895 6.59433 0.0859795C6.4666 0.142669 6.35217 0.225501 6.25842 0.329133C6.16467 0.432765 6.09368 0.554895 6.05003 0.687648C6.00638 0.820401 5.99104 0.960829 6.005 1.09987C4.87472 1.32978 3.85862 1.94324 3.12876 2.83638C2.39891 3.72952 2.00015 4.84745 2 6.00087C2 7.09888 1.5 12.0009 0 13.0009H14C12.5 12.0009 12 7.09888 12 6.00087C12 3.58087 10.28 1.56087 7.995 1.09987Z" fill="#25549E"/>
</svg>
