<svg width="64" height="64" viewBox="0 0 64 64" fill="none" xmlns="http://www.w3.org/2000/svg">
<g clip-path="url(#clip0_14322_1157)">
<path fill-rule="evenodd" clip-rule="evenodd" d="M59.8761 31.0932L34.235 61.2548C33.0849 62.6077 30.9966 62.6077 29.8465 61.2548L4.20539 31.0932C3.38487 30.128 3.29138 28.74 3.97504 27.6735L12.7109 14.046C13.2404 13.2199 14.1542 12.7203 15.1355 12.7203H48.9461C49.9273 12.7203 50.8411 13.2199 51.3707 14.046L60.1065 27.6735C60.7901 28.74 60.6967 30.128 59.8761 31.0932ZM35.6978 62.4984C33.7811 64.7531 30.3004 64.7531 28.3837 62.4984L2.74255 32.3368C1.37503 30.7282 1.21921 28.4148 2.35865 26.6374L11.0945 13.0098C11.9771 11.633 13.5 10.8003 15.1355 10.8003H48.9461C50.5815 10.8003 52.1044 11.633 52.9871 13.0098L61.7229 26.6373C62.8623 28.4148 62.7065 30.7282 61.339 32.3368L35.6978 62.4984Z" fill="#25549E"/>
<path d="M2.81813 30.2516C2.61315 30.0467 2.50277 29.7786 2.487 29.479C2.487 28.8798 2.97581 28.391 3.57501 28.391H61.0578C61.657 28.391 62.1458 28.8798 62.1458 29.479C62.1458 30.0782 61.657 30.567 61.0578 30.567L3.57501 30.567C3.29118 30.567 3.00735 30.4409 2.81813 30.2516Z" fill="#25549E"/>
<path d="M13.2406 12.6984C13.2406 12.4085 13.352 12.1409 13.5527 11.9179C13.9764 11.4942 14.6677 11.4942 15.0914 11.9179L31.9791 28.8056C32.4028 29.2292 32.4028 29.9205 31.9791 30.3442C31.5554 30.7679 30.8641 30.7679 30.4404 30.3442L13.5527 13.4565C13.352 13.2559 13.2406 12.9659 13.2406 12.6984Z" fill="#25549E"/>
<path d="M50.6969 12.6984C50.6969 12.4085 50.5855 12.1409 50.3848 11.9179C49.9611 11.4942 49.2698 11.4942 48.8461 11.9179L31.9584 28.8056C31.5347 29.2292 31.5347 29.9205 31.9584 30.3442C32.3821 30.7679 33.0734 30.7679 33.4971 30.3442L50.3848 13.4565C50.5855 13.2559 50.6969 12.9659 50.6969 12.6984Z" fill="#25549E"/>
</g>
<defs>
<clipPath id="clip0_14322_1157">
<rect width="64" height="64" fill="white"/>
</clipPath>
</defs>
</svg>
