<svg width="64" height="64" viewBox="0 0 64 64" fill="none" xmlns="http://www.w3.org/2000/svg">
<path d="M49.5485 63.9108H14.605C12.375 63.9108 10.2788 62.9519 8.80705 61.2794C7.35757 59.607 6.68858 57.377 6.97847 55.1916L14.159 2.34146C14.3374 1.00348 15.4969 0 16.8349 0H23.2126C24.7067 0 25.9109 1.20418 25.9109 2.69826V26.4251L32.0656 26.492L38.198 26.4251V2.69826C38.198 1.20418 39.4022 0 40.8963 0H47.2739C48.6119 0 49.7715 1.00348 49.9499 2.34146L57.1304 55.1916C57.4203 57.3993 56.7736 59.607 55.3018 61.2794C53.8746 62.9519 51.7562 63.9108 49.5485 63.9108ZM16.8572 2.18537C16.6119 2.18537 16.3889 2.38606 16.3443 2.63136L9.16383 55.4815C8.94084 57.0648 9.43144 58.6481 10.4795 59.83C11.5276 61.0341 13.0217 61.7031 14.6272 61.7031H49.5708C51.1541 61.7031 52.6705 61.0118 53.7186 59.83C54.7666 58.6258 55.2349 57.0425 55.0342 55.4815L47.8537 2.63136C47.8091 2.38606 47.6084 2.18537 47.3408 2.18537H40.9631C40.6732 2.18537 40.4503 2.40836 40.4503 2.69826V28.5882L32.1325 28.6774L23.7924 28.5882V2.69826C23.7924 2.40836 23.5694 2.18537 23.2795 2.18537H16.8572Z" fill="#25549E"/>
<path d="M26.1777 39.2695L37.9743 51.066L26.1777 39.2695Z" fill="white"/>
<path d="M37.9749 52.159C37.685 52.159 37.4174 52.0475 37.1944 51.8468L25.3978 40.0503C24.9742 39.6266 24.9742 38.9353 25.3978 38.5116C25.8215 38.0879 26.5128 38.0879 26.9365 38.5116L38.733 50.3081C39.1567 50.7318 39.1567 51.4231 38.733 51.8468C38.5323 52.0475 38.2424 52.159 37.9749 52.159Z" fill="#25549E"/>
<path d="M26.1777 51.066L37.9743 39.2695L26.1777 51.066Z" fill="white"/>
<path d="M26.1783 52.159C25.8884 52.159 25.6208 52.0475 25.3978 51.8468C24.9742 51.4231 24.9742 50.7318 25.3978 50.3081L37.1944 38.5116C37.6181 38.0879 38.3093 38.0879 38.733 38.5116C39.1567 38.9353 39.1567 39.6266 38.733 40.0503L26.9365 51.8468C26.7358 52.0475 26.4459 52.159 26.1783 52.159Z" fill="#25549E"/>
</svg>
