<svg width="62" height="64" viewBox="0 0 62 64" fill="none" xmlns="http://www.w3.org/2000/svg">
<path d="M43.5143 18.9814L34.5587 11.9261C34.1 11.5548 34.0126 10.8777 34.3839 10.4189C34.7553 9.96025 35.4324 9.87287 35.8911 10.2442L41.9416 15.0278L43.0556 7.40461C43.143 6.81485 43.6891 6.39984 44.2788 6.48721C44.8686 6.57458 45.2618 7.12065 45.1962 7.71041L43.5143 18.9814Z" fill="#25549E"/>
<path d="M53.1479 64.0218C52.995 64.0218 52.8421 64 52.6892 63.9126L42.3574 59.0635L51.7062 52.5324C52.1868 52.1829 52.8639 52.314 53.1916 52.7945C53.5192 53.2751 53.41 53.9522 52.9295 54.2799L46.6168 58.6921L53.5848 61.9467C54.1308 62.187 54.3492 62.8423 54.109 63.3665C53.9561 63.8034 53.5629 64.0218 53.1479 64.0218Z" fill="#25549E"/>
<path d="M10.0949 50.5009C9.52701 50.5009 9.04648 50.0422 9.02464 49.4743L8.67513 41.7855L2.18777 45.9357C1.68538 46.2634 1.03008 46.1105 0.702435 45.6081C0.37479 45.1057 0.527691 44.4504 1.03008 44.1227L10.641 37.9849L11.1652 49.3869C11.1871 49.9767 10.7284 50.4791 10.1386 50.5009C10.1168 50.5009 10.0949 50.5009 10.0949 50.5009Z" fill="#25549E"/>
<path d="M54.983 59.6098H46.3331C45.7434 59.6098 45.2628 59.1292 45.2628 58.5395C45.2628 57.9497 45.7434 57.4692 46.3331 57.4692H54.983C56.4464 57.4692 57.7789 56.7265 58.5652 55.4814C59.3515 54.2364 59.4171 52.7074 58.7836 51.3968L43.6027 20.4453C43.3406 19.921 43.5591 19.2657 44.1051 19.0036C44.6294 18.7415 45.2847 18.9599 45.5468 19.506L60.7277 50.4576C61.7106 52.4453 61.5795 54.7388 60.4219 56.6173C59.2205 58.4958 57.1891 59.6098 54.983 59.6098Z" fill="#25549E"/>
<path d="M40.151 59.6092H9.02474C6.8186 59.6092 4.78716 58.4952 3.62948 56.6167C2.44996 54.7382 2.34076 52.4447 3.3237 50.457L7.84519 41.2174C8.10731 40.6932 8.74077 40.4747 9.28685 40.715C9.81108 40.9771 10.0295 41.6106 9.78925 42.1567L5.2677 51.3962C4.61241 52.7068 4.69979 54.2358 5.48613 55.4809C6.25064 56.7259 7.60494 57.4686 9.06842 57.4686H40.1947C40.7845 57.4686 41.265 57.9491 41.265 58.5389C41.2213 59.1287 40.7408 59.6092 40.151 59.6092Z" fill="#25549E"/>
<path d="M11.0119 38.2471C10.859 38.2471 10.6843 38.2034 10.5314 38.1379C10.0071 37.8758 9.7887 37.2423 10.029 36.6962L26.2802 3.56041C27.3505 1.35427 29.5566 0 32.0031 0C34.4495 0 36.6338 1.37611 37.7259 3.56041L43.3614 15.028C43.6235 15.5522 43.4051 16.2075 42.859 16.4696C42.3129 16.7317 41.6795 16.5133 41.4174 15.9672L35.7819 4.49966C35.0611 3.01433 33.6413 2.14061 32.0031 2.14061C30.3648 2.14061 28.945 3.01433 28.2242 4.49966L11.973 37.6355C11.7983 38.0287 11.4051 38.2471 11.0119 38.2471Z" fill="#25549E"/>
</svg>
