<svg width="64" height="64" viewBox="0 0 64 64" fill="none" xmlns="http://www.w3.org/2000/svg">
<path fill-rule="evenodd" clip-rule="evenodd" d="M61.0486 8L45.6692 52.3498C44.3311 56.2087 39.5132 57.4875 36.4374 54.8004L26.4141 46.0434L22.4653 49.3222C20.7971 50.7075 18.2699 49.5211 18.2699 47.3527V38.572L4.19163 25.1455C0.697114 21.8128 2.60838 15.9177 7.39361 15.2694L61.0486 8ZM20.1899 40.3481V47.3527C20.1899 47.8948 20.8217 48.1914 21.2388 47.8451L24.9716 44.7455L20.1899 40.3481ZM27.0708 44.0675L37.7007 53.3545C39.7512 55.1459 42.9631 54.2933 43.8552 51.7208L57.7315 11.7054L20.7481 38.2529L27.0708 44.0675ZM19.3166 36.917L55.937 10.6301L7.65139 17.172C4.46123 17.6042 3.18705 21.5343 5.51673 23.7561L19.3166 36.917Z" fill="#25549E"/>
</svg>
