<svg width="42" height="42" viewBox="0 0 42 42" fill="none" xmlns="http://www.w3.org/2000/svg">
<circle cx="21" cy="21" r="21" fill="#EA3335"/>
<path fill-rule="evenodd" clip-rule="evenodd" d="M24.4375 14.8125C24.4375 13.9008 24.0753 13.0265 23.4307 12.3818C22.786 11.7372 21.9117 11.375 21 11.375C20.0883 11.375 19.214 11.7372 18.5693 12.3818C17.9247 13.0265 17.5625 13.9008 17.5625 14.8125V15.5H24.4375V14.8125ZM25.8125 14.8125V15.5H30.625V29.25C30.625 29.9793 30.3353 30.6788 29.8195 31.1945C29.3038 31.7103 28.6043 32 27.875 32H14.125C13.3957 32 12.6962 31.7103 12.1805 31.1945C11.6647 30.6788 11.375 29.9793 11.375 29.25V15.5H16.1875V14.8125C16.1875 13.5361 16.6945 12.3121 17.597 11.4095C18.4996 10.507 19.7236 10 21 10C22.2764 10 23.5004 10.507 24.403 11.4095C25.3055 12.3121 25.8125 13.5361 25.8125 14.8125ZM24.9242 22.1742C25.0533 22.0452 25.1259 21.8701 25.1259 21.6875C25.1259 21.5049 25.0533 21.3298 24.9242 21.2008C24.7952 21.0717 24.6201 20.9991 24.4375 20.9991C24.2549 20.9991 24.0798 21.0717 23.9508 21.2008L20.3125 24.8404L18.7368 23.2633C18.6728 23.1993 18.5969 23.1486 18.5134 23.114C18.4299 23.0794 18.3404 23.0616 18.25 23.0616C18.1596 23.0616 18.0701 23.0794 17.9866 23.114C17.9031 23.1486 17.8272 23.1993 17.7632 23.2633C17.6993 23.3272 17.6486 23.4031 17.614 23.4866C17.5794 23.5701 17.5616 23.6596 17.5616 23.75C17.5616 23.8404 17.5794 23.9299 17.614 24.0134C17.6486 24.0969 17.6993 24.1728 17.7632 24.2367L19.8258 26.2992C19.8896 26.3633 19.9655 26.4141 20.049 26.4487C20.1325 26.4834 20.2221 26.5012 20.3125 26.5012C20.4029 26.5012 20.4925 26.4834 20.576 26.4487C20.6595 26.4141 20.7354 26.3633 20.7992 26.2992L24.9242 22.1742Z" fill="white"/>
</svg>
