<svg width="22" height="14" viewBox="0 0 22 14" fill="none" xmlns="http://www.w3.org/2000/svg">
<path fill-rule="evenodd" clip-rule="evenodd" d="M21.5 7.00052C21.5 7.19943 21.421 7.3902 21.2803 7.53085C21.1397 7.6715 20.9489 7.75052 20.75 7.75052L3.0605 7.75052L7.781 12.4695C7.92183 12.6103 8.00095 12.8014 8.00095 13.0005C8.00095 13.1997 7.92183 13.3907 7.781 13.5315C7.64017 13.6723 7.44916 13.7515 7.25 13.7515C7.05084 13.7515 6.85983 13.6723 6.719 13.5315L0.719 7.53152C0.649155 7.46185 0.593741 7.37908 0.555932 7.28797C0.518122 7.19685 0.49866 7.09917 0.49866 7.00052C0.49866 6.90187 0.518122 6.80418 0.555932 6.71307C0.593741 6.62195 0.649155 6.53919 0.719 6.46952L6.719 0.469517C6.85983 0.328687 7.05084 0.249571 7.25 0.249571C7.44916 0.249571 7.64017 0.328687 7.781 0.469517C7.92183 0.610348 8.00095 0.801354 8.00095 1.00052C8.00095 1.19968 7.92183 1.39069 7.781 1.53152L3.0605 6.25052L20.75 6.25052C20.9489 6.25052 21.1397 6.32954 21.2803 6.47019C21.421 6.61084 21.5 6.80161 21.5 7.00052Z" fill="#686868"/>
</svg>
