<svg width="22" height="14" viewBox="0 0 22 14" fill="none" xmlns="http://www.w3.org/2000/svg">
<path fill-rule="evenodd" clip-rule="evenodd" d="M0.5 6.99948C0.5 6.80057 0.579018 6.6098 0.71967 6.46915C0.860322 6.3285 1.05109 6.24948 1.25 6.24948H18.9395L14.219 1.53048C14.0782 1.38965 13.9991 1.19865 13.9991 0.999482C13.9991 0.800319 14.0782 0.609312 14.219 0.468482C14.3598 0.327652 14.5508 0.248535 14.75 0.248535C14.9492 0.248535 15.1402 0.327652 15.281 0.468482L21.281 6.46848C21.3508 6.53815 21.4063 6.62091 21.4441 6.71203C21.4819 6.80315 21.5013 6.90083 21.5013 6.99948C21.5013 7.09813 21.4819 7.19581 21.4441 7.28693C21.4063 7.37805 21.3508 7.46081 21.281 7.53048L15.281 13.5305C15.1402 13.6713 14.9492 13.7504 14.75 13.7504C14.5508 13.7504 14.3598 13.6713 14.219 13.5305C14.0782 13.3897 13.9991 13.1986 13.9991 12.9995C13.9991 12.8003 14.0782 12.6093 14.219 12.4685L18.9395 7.74948H1.25C1.05109 7.74948 0.860322 7.67046 0.71967 7.52981C0.579018 7.38916 0.5 7.19839 0.5 6.99948Z" fill="#686868"/>
</svg>
